<svg xmlns="http://www.w3.org/2000/svg" version="1.1" xmlns:xlink="http://www.w3.org/1999/xlink" xmlns:svgjs="http://svgjs.dev/svgjs" width="1500" height="439" viewBox="0 0 1500 439"><g transform="matrix(1,0,0,1,-0.9090909090909918,0.25879791538670815)"><svg viewBox="0 0 396 116" data-background-color="#ffffff" preserveAspectRatio="xMidYMid meet" height="439" width="1500" xmlns="http://www.w3.org/2000/svg" xmlns:xlink="http://www.w3.org/1999/xlink"><g id="tight-bounds" transform="matrix(1,0,0,1,0.2400000000000091,-0.06838395941881004)"><svg viewBox="0 0 395.52 116.13676791883759" height="116.13676791883759" width="395.52"><g><svg viewBox="0 0 397.4975999999999 116.71745175843176" height="116.13676791883759" width="395.52"><g><rect width="397.4975999999999" height="3.574901391109207" x="0" y="64.14278052751072" fill="#264f0b" opacity="1" stroke-width="0" stroke="transparent" fill-opacity="1" class="rect-yte-0" data-fill-palette-color="secondary" rx="1%" id="yte-0" data-palette-color="#264f0b"></rect></g><g transform="matrix(1,0,0,1,0.9887999999999693,77.07606252361785)"><svg viewBox="0 0 395.52 39.64138923481389" height="39.64138923481389" width="395.52"><g id="textblocktransform"><svg viewBox="0 0 395.52 39.64138923481389" height="39.64138923481389" width="395.52" id="textblock"><g><svg viewBox="0 0 395.52 39.64138923481389" height="39.64138923481389" width="395.52"><g transform="matrix(1,0,0,1,0,0)"><svg width="395.52" viewBox="2.08 -41.94 529.27 53.05" height="39.64138923481389" data-palette-color="#264f0b"><path d="M2.08-2.47L3.69-5.88Q9.23-2.95 14.53-2.95L14.53-2.95Q20.68-2.95 21.73-6.88L21.73-6.88Q22.07-8.18 22.07-9.86L22.07-9.86 22.07-10.82Q22.07-12.52 21.83-13.57 21.58-14.62 20.8-15.28L20.8-15.28Q19.53-16.38 14.79-17.11L14.79-17.11Q10.57-17.77 8.96-18.36 7.35-18.95 6.31-19.64 5.27-20.34 4.54-21.39L4.54-21.39Q3.03-23.58 3.03-27.47L3.03-27.47 3.03-27.71Q3.03-35.77 9.72-37.35L9.72-37.35Q11.84-37.84 14.53-37.84L14.53-37.84 14.84-37.84Q21.12-37.84 25.1-36.04L25.1-36.04 23.83-32.3Q19.02-34.38 14.97-34.38L14.97-34.38 14.75-34.38Q10.28-34.38 8.59-32.69L8.59-32.69Q7.18-31.27 7.18-27.78L7.18-27.78 7.18-27.69Q7.18-23.71 9.38-22.46L9.38-22.46Q10.86-21.66 14.71-21.04 18.55-20.43 20.43-20.01 22.31-19.58 23.63-18.6L23.63-18.6Q26.37-16.55 26.37-10.82L26.37-10.82 26.37-10.5Q26.37-1.73 19.31-0.05L19.31-0.05Q17.14 0.49 15.21 0.49 13.28 0.49 11.71 0.35 10.13 0.22 8.5-0.12L8.5-0.12Q4.66-0.9 2.08-2.47L2.08-2.47ZM56.56-29.05L56.56-12.79Q56.56-4.74 57.03-0.2L57.03-0.2 53.39 0.1 52.81-3.34Q49.95-0.98 46.14 0.07L46.14 0.07Q44.63 0.49 42.54 0.49 40.45 0.49 38.8-0.01 37.16-0.51 36.18-1.61L36.18-1.61Q34.4-3.59 34.4-8.81L34.4-8.81 34.4-29.05 38.5-29.05 38.5-9.47Q38.5-5.96 39.18-4.94 39.87-3.93 40.81-3.58 41.75-3.22 43.04-3.22 44.33-3.22 45.54-3.43 46.75-3.64 47.97-4.03L47.97-4.03Q50.53-4.86 52.61-6.3L52.61-6.3 52.61-6.32Q52.51-8.18 52.51-13.55L52.51-13.55 52.51-29.05 56.56-29.05ZM71.7-2.71L71.7-2.71 71.19 0 67.74 0 67.74-41.55 71.8-41.94 71.8-26.27Q76.85-29.54 81.56-29.54L81.56-29.54Q88.11-29.54 89.86-25.51L89.86-25.51Q90.96-22.97 91.11-18.38L91.11-18.38Q91.16-16.16 91.16-13.5L91.16-13.5 91.16-11.55Q91.16-8.2 90.73-6.52 90.3-4.83 89.64-3.63 88.98-2.42 87.84-1.51L87.84-1.51Q85.35 0.49 80.71 0.49 76.07 0.49 71.7-2.71ZM71.8-23.05L71.8-5.91Q76.97-3.1 80.51-3.1L80.51-3.1 80.81-3.1Q84.98-3.1 86.18-5.42L86.18-5.42Q86.81-6.59 86.96-8.47 87.1-10.35 87.1-12.99L87.1-12.99 87.1-16.5Q87.1-21.95 85.86-23.83L85.86-23.83Q84.64-25.71 81.22-25.71L81.22-25.71 80.61-25.71Q77.56-25.71 73.53-23.9L73.53-23.9Q72.48-23.44 71.8-23.05L71.8-23.05ZM99.48-2.39L101.24-5.76Q106.27-2.95 111.35-2.95L111.35-2.95Q115.57-2.95 116.3-5.96L116.3-5.96Q116.55-6.98 116.55-8.46 116.55-9.94 116.2-10.75 115.86-11.57 115.06-11.98 114.25-12.38 112.92-12.57 111.59-12.77 109.54-13.12 107.49-13.48 105.78-13.92 104.07-14.36 102.87-15.19L102.87-15.19Q100.33-16.97 100.43-21.19L100.43-21.19 100.43-21.8Q100.43-26.25 103.36-28.13L103.36-28.13Q106.19-29.98 112.71-29.39L112.71-29.39Q117.16-28.98 119.79-27.86L119.79-27.86 118.64-24.17Q115.72-25.42 111.61-25.98L111.61-25.98Q110.34-26.15 109.23-26.15 108.12-26.15 107.22-25.98 106.32-25.81 105.71-25.34L105.71-25.34Q104.53-24.39 104.48-21.8L104.48-21.8Q104.41-18.75 106.19-17.92L106.19-17.92Q107.9-17.11 110.25-16.81 112.59-16.5 114.08-16.27 115.57-16.04 116.79-15.65 118.01-15.26 118.89-14.4L118.89-14.4Q120.72-12.67 120.67-8.37L120.67-8.37Q120.55-0.88 114.42 0.17L114.42 0.17Q112.57 0.49 110.71 0.49 108.85 0.49 107.3 0.26 105.75 0.02 104.34-0.39L104.34-0.39Q101.65-1.15 99.48-2.39L99.48-2.39ZM149.31-4.59L150.53-1.29Q147.13 0.49 141.23 0.49L141.23 0.49Q137.73 0.49 136.1-0.05L136.1-0.05Q131.92-1.46 130.63-4.86L130.63-4.86Q129.73-7.23 129.58-9.96 129.43-12.7 129.43-14.58 129.43-16.46 129.53-18.25 129.63-20.04 130.01-21.7 130.39-23.36 131.17-24.79 131.95-26.22 133.29-27.29L133.29-27.29Q136.2-29.54 141.64-29.54L141.64-29.54Q145.64-29.54 149.01-28.37L149.01-28.37Q149.92-28.08 150.38-27.81L150.38-27.81 149.16-24.19Q144.47-26 141.48-26 138.49-26 137.09-25.32 135.68-24.63 134.9-23.24L134.9-23.24Q133.58-20.85 133.58-14.45L133.58-14.45Q133.58-11.89 133.75-9.78 133.93-7.67 134.61-6.15L134.61-6.15Q136.05-3.03 140.55-3.03 145.06-3.03 149.31-4.59L149.31-4.59ZM169.96-25.51L169.96-25.51Q166.83-25.51 163.59-22.39L163.59-22.39 163.59 0 159.53 0 159.53-29.05 163.1-29.05 163.49-25.2Q164.64-26.98 165.97-27.98 167.3-28.98 168.15-29.2L168.15-29.2Q169.37-29.54 170.47-29.54 171.57-29.54 173.23-29.1L173.23-29.1 172.86-25.22Q171.62-25.51 169.96-25.51ZM183.29-36.01L183.29-36.01Q181.65-36.01 181.19-36.47L181.19-36.47Q180.45-37.23 180.45-38.56 180.45-39.89 180.61-40.47 180.77-41.04 181.09-41.36L181.09-41.36Q181.67-41.94 182.88-41.94 184.09-41.94 184.62-41.82 185.14-41.7 185.48-41.36L185.48-41.36Q186.07-40.77 186.07-39.44 186.07-38.11 185.93-37.54 185.8-36.96 185.48-36.62L185.48-36.62Q184.87-36.01 183.29-36.01ZM181.36 0L181.31-29.05 185.31-29.05 185.31 0 181.36 0ZM200.96-1.73L200.96-1.73 200.96 11.11 196.91 11.11 196.91-29.05 200.2-29.05 200.67-26.05Q203.52-28.2 208.11-29.2L208.11-29.2Q209.77-29.54 211.73-29.54 213.68-29.54 215.18-29.03 216.68-28.52 217.66-27.6 218.63-26.68 219.17-25.42 219.71-24.15 219.98-22.66L219.98-22.66Q220.32-20.61 220.32-16.11L220.32-16.11 220.32-15.55Q220.32-9.84 219.93-7.64 219.54-5.44 218.9-4.02 218.27-2.59 217.15-1.59L217.15-1.59Q214.83 0.49 209.97 0.49 205.11 0.49 200.96-1.73ZM200.96-22.92L200.96-5.08Q205.11-3.17 209.67-3.17L209.67-3.17Q212.65-3.17 214.02-4.27L214.02-4.27Q215.88-5.79 216.1-11.33L216.1-11.33Q216.17-13.16 216.17-15.53L216.17-15.53 216.17-16.06Q216.17-21.68 215.19-23.58L215.19-23.58Q214.09-25.76 210.65-25.76L210.65-25.76 210.29-25.76Q206.7-25.76 202.84-23.97L202.84-23.97Q201.72-23.46 200.96-22.92L200.96-22.92ZM243.27-4.57L244.66-1.39Q240.68 0.49 237.31 0.49L237.31 0.49Q231.21 0.49 230.38-4.74L230.38-4.74Q230.18-5.98 230.18-8.35L230.18-8.35 230.18-25.66 226.66-25.66 226.66-28.66 230.18-29.05 230.81-35.69 234.21-35.69 234.21-29.05 242.68-29.05 242.68-25.66 234.21-25.66 234.21-8.42Q234.21-5.42 234.65-4.59L234.65-4.59Q235.45-3.08 237.87-3.08 240.29-3.08 243.27-4.57L243.27-4.57ZM254.1-36.01L254.1-36.01Q252.47-36.01 252-36.47L252-36.47Q251.27-37.23 251.27-38.56 251.27-39.89 251.43-40.47 251.59-41.04 251.91-41.36L251.91-41.36Q252.49-41.94 253.7-41.94 254.91-41.94 255.43-41.82 255.96-41.7 256.3-41.36L256.3-41.36Q256.89-40.77 256.89-39.44 256.89-38.11 256.75-37.54 256.62-36.96 256.3-36.62L256.3-36.62Q255.69-36.01 254.1-36.01ZM252.17 0L252.13-29.05 256.13-29.05 256.13 0 252.17 0ZM267.02-14.45L267.02-14.45Q267.02-20 267.58-22.19 268.14-24.39 268.96-25.67 269.77-26.95 271.17-27.81L271.17-27.81Q273.95-29.54 279.39-29.54L279.39-29.54Q287.26-29.54 289.5-25.66L289.5-25.66Q290.84-23.32 291.04-19.04L291.04-19.04Q291.11-17.02 291.11-14.58 291.11-12.13 290.95-10.02 290.8-7.91 290.33-6.23 289.87-4.54 289.04-3.28 288.21-2.03 286.84-1.17L286.84-1.17Q284.15 0.49 279 0.49L279 0.49Q271.29 0.49 268.87-3.32L268.87-3.32Q267.38-5.69 267.14-9.96L267.14-9.96Q267.02-12.01 267.02-14.45ZM273.66-4.27Q274.54-3.61 275.87-3.28 277.2-2.95 279.5-2.95 281.81-2.95 283.39-3.61 284.96-4.27 285.75-5.73 286.55-7.18 286.75-9.5 286.96-11.82 286.96-14.89 286.96-17.97 286.78-20.02 286.6-22.07 285.86-23.41L285.86-23.41Q284.4-26.05 279.35-26.05L279.35-26.05Q274-26.05 272.39-23.41L272.39-23.41Q271.58-22.07 271.36-20 271.14-17.92 271.14-15.48 271.14-13.04 271.2-11.34 271.26-9.64 271.52-8.29 271.78-6.93 272.28-5.93 272.78-4.93 273.66-4.27ZM314.89-25.73L314.89-25.73Q310.13-25.73 305.2-22.92L305.2-22.92 305.2 0 301.14 0 301.14-29.05 304.71-29.05 305.1-26.05Q307.76-28.22 311.72-29.15L311.72-29.15Q313.33-29.54 315.5-29.54 317.67-29.54 319.33-29.04 320.99-28.54 321.97-27.44L321.97-27.44Q323.75-25.46 323.75-20.24L323.75-20.24 323.75 0 319.65 0 319.65-19.48Q319.65-23 318.97-24.01 318.28-25.02 317.34-25.38 316.4-25.73 314.89-25.73ZM351.73 0L351.73-33.74 341.76-33.74 341.76-37.35 366.18-37.35 366.18-33.74 355.88-33.74 355.88 0 351.73 0ZM382.34-25.51L382.34-25.51Q379.21-25.51 375.97-22.39L375.97-22.39 375.97 0 371.91 0 371.91-29.05 375.48-29.05 375.87-25.2Q377.02-26.98 378.35-27.98 379.68-28.98 380.53-29.2L380.53-29.2Q381.75-29.54 382.85-29.54 383.95-29.54 385.61-29.1L385.61-29.1 385.24-25.22Q384-25.51 382.34-25.51ZM415-19.41L415-10.3Q415-5.44 415.47-0.2L415.47-0.2 411.85 0.1 411.24-3.3Q408.14-0.81 403.04 0.17L403.04 0.17Q401.38 0.49 400.08 0.49 398.79 0.49 397.8 0.37 396.81 0.24 395.9-0.11 394.98-0.46 394.2-1.1 393.42-1.73 392.83-2.78L392.83-2.78Q391.59-5 391.59-8.12 391.59-11.23 392.04-12.95 392.49-14.67 393.54-15.82L393.54-15.82Q395.62-18.09 400.52-18.09 405.43-18.09 411-16.24L411-16.24 411-19.41Q411-24.71 406.63-25.68L406.63-25.68Q405.21-26 403.38-26L403.38-26Q399.21-26 394.71-24.34L394.71-24.34 393.81-27.86Q395.06-28.69 400.16-29.35L400.16-29.35Q401.77-29.54 404.03-29.54 406.29-29.54 408.46-29 410.63-28.47 412.07-27.25L412.07-27.25Q415-24.83 415-19.41L415-19.41ZM410.9-13.18L410.9-13.18Q405.19-14.62 400.35-14.62L400.35-14.62Q397.37-14.62 396.4-12.92L396.4-12.92Q395.74-11.72 395.74-9.38 395.74-7.03 396-5.98 396.25-4.93 396.84-4.25L396.84-4.25Q397.98-2.95 400.62-2.95L400.62-2.95Q404.75-2.95 408.8-5.08L408.8-5.08Q410.05-5.71 411.05-6.49L411.05-6.49Q410.9-9.13 410.9-13.18ZM445.03-4.59L446.25-1.29Q442.86 0.49 436.95 0.49L436.95 0.49Q433.46 0.49 431.82-0.05L431.82-0.05Q427.65-1.46 426.35-4.86L426.35-4.86Q425.45-7.23 425.3-9.96 425.16-12.7 425.16-14.58 425.16-16.46 425.25-18.25 425.35-20.04 425.73-21.7 426.11-23.36 426.89-24.79 427.67-26.22 429.01-27.29L429.01-27.29Q431.92-29.54 437.36-29.54L437.36-29.54Q441.37-29.54 444.74-28.37L444.74-28.37Q445.64-28.08 446.1-27.81L446.1-27.81 444.88-24.19Q440.19-26 437.2-26 434.21-26 432.81-25.32 431.41-24.63 430.62-23.24L430.62-23.24Q429.31-20.85 429.31-14.45L429.31-14.45Q429.31-11.89 429.48-9.78 429.65-7.67 430.33-6.15L430.33-6.15Q431.77-3.03 436.28-3.03 440.78-3.03 445.03-4.59L445.03-4.59ZM455.18 0L455.18-41.46 459.23-41.89 459.23-16.7Q460.21-16.5 461.59-17.7 462.97-18.9 464.04-19.98 465.12-21.07 466.27-22.36L466.27-22.36Q470.39-27.12 471.69-29.05L471.69-29.05 476.52-29.05Q475.98-27.83 474.05-25.59L474.05-25.59 470.78-21.9Q468.12-19.04 466.52-17.68 464.92-16.31 464.41-16.11L464.41-16.11 464.41-15.87 465.14-15.5Q466.73-14.75 469.29-11.47L469.29-11.47 478.4 0 473.27 0 467.07-8.13Q462.77-13.75 460.5-13.94L460.5-13.94 459.97-13.99Q459.72-14.01 459.53-14 459.33-13.99 459.23-13.99L459.23-13.99 459.23 0 455.18 0ZM505.91-5.03L507.11-1.54Q502.05 0.49 495.95 0.49L495.95 0.49Q492.41 0.49 489.95-0.24L489.95-0.24Q486.01-1.37 484.72-4.88L484.72-4.88Q483.52-8.18 483.52-14.65L483.52-14.65 483.52-15.89Q483.52-23.63 486.75-26.76L486.75-26.76Q489.65-29.54 496.44-29.54L496.44-29.54Q503.06-29.54 505.47-26.27L505.47-26.27Q506.64-24.68 507.02-22.42 507.4-20.17 507.4-18.12L507.4-18.12Q507.4-14.92 507.25-13.16L507.25-13.16Q503.81-13.01 501.08-13.01L501.08-13.01Q501.08-13.01 497.15-13.01L497.15-13.01Q491-13.01 487.67-13.55L487.67-13.55Q487.67-7.93 489.09-5.71L489.09-5.71Q490.82-3 496-3 501.18-3 505.91-5.03L505.91-5.03ZM487.67-16.41L503.28-16.41 503.28-18.75Q503.28-22.58 501.79-24.22L501.79-24.22Q500.13-26.05 496.05-26.05L496.05-26.05Q491.17-26.05 489.38-23.93L489.38-23.93Q487.67-21.9 487.67-16.41L487.67-16.41ZM528.08-25.51L528.08-25.51Q524.95-25.51 521.71-22.39L521.71-22.39 521.71 0 517.65 0 517.65-29.05 521.22-29.05 521.61-25.2Q522.76-26.98 524.09-27.98 525.42-28.98 526.27-29.2L526.27-29.2Q527.49-29.54 528.59-29.54 529.69-29.54 531.35-29.1L531.35-29.1 530.98-25.22Q529.74-25.51 528.08-25.51Z" opacity="1" transform="matrix(1,0,0,1,0,0)" fill="#264f0b" class="wordmark-text-0" data-fill-palette-color="primary" id="text-0"></path></svg></g></svg></g></svg></g></svg></g><g transform="matrix(1,0,0,1,156.41099947876685,0)"><svg viewBox="0 0 84.6756010424662 54.784399922512804" height="54.784399922512804" width="84.6756010424662"><g><svg xmlns="http://www.w3.org/2000/svg" xml:space="preserve" viewBox="6 14.899999999999999 88 70.19999999999999" x="8" y="0" height="54.784399922512804" width="68.6756010424662" class="icon-icon-0" data-fill-palette-color="accent" id="icon-0"><path d="M88.5 24.4H83v-9.5H17v9.5h-5.5v9.5H6v51.2h88V33.9h-5.5z m0.5 55.7H11V38.9h78zM78 19.9v4.5H22v-4.5z m5.5 9.5v4.5h-67v-4.5z" fill="#fd6c23" data-fill-palette-color="accent"></path></svg></g></svg></g><g><rect width="79.87787947876689" height="3.574901391109207" y="50.2094985314036" x="241.08660052123304" fill="#264f0b" data-fill-palette-color="secondary"></rect><rect width="79.87787947876689" height="3.574901391109207" y="50.2094985314036" x="76.53311999999997" fill="#264f0b" data-fill-palette-color="secondary"></rect></g></svg></g><defs></defs></svg><rect width="395.52" height="116.13676791883759" fill="none" stroke="none" visibility="hidden"></rect></g></svg></g></svg>